# File created by Blade
# Date/Time:  Tue Sep 30 19:31:45 2014
#---------------------------------------------------------
:version 1.10
:name HOM
:units
  mass 1.0
  length 1.000000
  angle deg
:documentation
     Acclaim Skeleton File
:root
   axis xyz
   order TX TY TZ RX RY RZ
   position 0.000000 0.000000 0.000000
   orientation 0 0 0
:bonedata
   begin
      id 1
      name Spine_dum
      direction 0.000000 1.000000 0.000000
      length 3.241213
      axis 0.0 0.0 0.0 xyz
   end
   begin
      id 2
      name LeftUpLeg_dum
      direction 1.000000 0.000000 0.000000
      length 3.434019
      axis 0.0 0.0 0.0 xyz
   end
   begin
      id 3
      name RightUpLeg_dum
      direction -1.000000 0.000000 0.000000
      length 3.434019
      axis 0.0 0.0 0.0 xyz
   end
   begin
      id 4
      name Spine
      direction 0.000000 1.000000 0.000000
      length 0.000000
      axis 0.0 0.0 0.0 xyz
      dof rx ry rz
   end
   begin
      id 5
      name Spine_dum1
      direction 0.000000 1.000000 0.000000
      length 18.382958
      axis 0.0 0.0 0.0 xyz
   end
   begin
      id 6
      name Spine_dum2
      direction 0.000000 1.000000 0.000000
      length 12.828261
      axis 0.0 0.0 0.0 xyz
   end
   begin
      id 7
      name Spine_dum3
      direction 0.000000 1.000000 0.000000
      length 12.828261
      axis 0.0 0.0 0.0 xyz
   end
   begin
      id 8
      name Head
      direction 0.000000 1.000000 0.000000
      length 4.527550
      axis 0.0 0.0 0.0 xyz
      dof rx ry rz
   end
   begin
      id 9
      name LeftShoulder
      direction 1.000000 0.000000 0.000000
      length 7.748055
      axis 0.0 0.0 -90.0 xyz
      dof rx ry rz
   end
   begin
      id 10
      name LeftArm
      direction 1.000000 0.000000 0.000000
      length 10.635614
      axis 0.0 0.0 -90.0 xyz
      dof rx ry rz
   end
   begin
      id 11
      name LeftForeArm
      direction 1.000000 0.000000 0.000000
      length 8.346755
      axis 0.0 0.0 -90.0 xyz
      dof ry rz rx
   end
   begin
      id 12
      name LeftHand
      direction 0.000000 0.000000 0.000000
      length 0.000000
      axis 0.0 0.0 -90.0 xyz
      dof rx ry rz
   end
   begin
      id 13
      name LeftHand_dum1
      direction 0.000000 0.000000 0.000000
      length 0.000000
      axis 0.0 0.0 -90.0 xyz
   end
   begin
      id 14
      name LeftHand_dum2
      direction 1.000000 0.000000 0.000000
      length 3.937000
      axis 0.0 0.0 -90.0 xyz
   end
   begin
      id 15
      name LeftHandThumb1
      direction 0.000000 0.000000 1.000000
      length 3.937000
      axis 0.0 0.0 -90.0 xyz
      dof rx rz ry
   end
   begin
      id 16
      name RightShoulder
      direction -1.000000 0.000000 0.000000
      length 7.748055
      axis 0.0 0.0 90.0 xyz
      dof rx ry rz
   end
   begin
      id 17
      name RightArm
      direction -1.000000 0.000000 0.000000
      length 10.635614
      axis 0.0 0.0 90.0 xyz
      dof rx ry rz
   end
   begin
      id 18
      name RightForeArm
      direction -1.000000 0.000000 0.000000
      length 8.346755
      axis 0.0 0.0 90.0 xyz
      dof ry rz rx
   end
   begin
      id 19
      name RightHand
      direction 0.000000 0.000000 0.000000
      length 0.000000
      axis 0.0 0.0 90.0 xyz
      dof rx ry rz
   end
   begin
      id 20
      name RightHand_dum1
      direction 0.000000 0.000000 0.000000
      length 0.000000
      axis 0.0 0.0 90.0 xyz
   end
   begin
      id 21
      name RightHand_dum2
      direction -1.000000 0.000000 0.000000
      length 3.937000
      axis 0.0 0.0 90.0 xyz
   end
   begin
      id 22
      name RightHandThumb1
      direction 0.000000 0.000000 1.000000
      length 3.937000
      axis 0.0 0.0 90.0 xyz
      dof rx rz ry
   end
   begin
      id 23
      name LeftUpLeg
      direction 0.000000 -1.000000 0.000000
      length 15.713025
      axis 0.0 0.0 0.0 xyz
      dof rx ry rz
   end
   begin
      id 24
      name LeftLeg
      direction 0.000000 -1.000000 0.000000
      length 14.435119
      axis 0.0 0.0 0.0 xyz
      dof rx ry rz
   end
   begin
      id 25
      name LeftFoot
      direction 0.000000 -0.258819 0.965926
      length 4.938895
      axis 15.0 0.0 0.0 xyz
      dof rx ry rz
   end
   begin
      id 26
      name LeftToeBase
      direction 0.000000 0.000000 1.000000
      length 2.952750
      axis 0.0 0.0 0.0 xyz
      dof rx ry rz
   end
   begin
      id 27
      name RightUpLeg
      direction 0.000000 -1.000000 0.000000
      length 15.713025
      axis 0.0 0.0 0.0 xyz
      dof rx ry rz
   end
   begin
      id 28
      name RightLeg
      direction 0.000000 -1.000000 0.000000
      length 14.435119
      axis 0.0 0.0 0.0 xyz
      dof rx ry rz
   end
   begin
      id 29
      name RightFoot
      direction 0.000000 -0.258819 0.965926
      length 4.938895
      axis 15.0 0.0 0.0 xyz
      dof rx ry rz
   end
   begin
      id 30
      name RightToeBase
      direction 0.000000 0.000000 1.000000
      length 2.952750
      axis 0.0 0.0 0.0 xyz
      dof rx ry rz
   end
:hierarchy
   begin
      root Spine_dum LeftUpLeg_dum RightUpLeg_dum
      Spine_dum Spine
      LeftUpLeg_dum LeftUpLeg
      RightUpLeg_dum RightUpLeg
      Spine Spine_dum1 Spine_dum2 Spine_dum3
      Spine_dum1 Head
      Spine_dum2 LeftShoulder
      Spine_dum3 RightShoulder
      LeftShoulder LeftArm
      LeftArm LeftForeArm
      LeftForeArm LeftHand
      LeftHand LeftHand_dum1 LeftHand_dum2
      LeftHand_dum1 LeftHandThumb1
      RightShoulder RightArm
      RightArm RightForeArm
      RightForeArm RightHand
      RightHand RightHand_dum1 RightHand_dum2
      RightHand_dum1 RightHandThumb1
      LeftUpLeg LeftLeg
      LeftLeg LeftFoot
      LeftFoot LeftToeBase
      RightUpLeg RightLeg
      RightLeg RightFoot
      RightFoot RightToeBase
   end

# File created by Blade
# Date/Time:  Mon Sep 22 19:00:17 2014
# Frame Rate: 120.000 fps
#------------------------------------------------------
:FULLY-SPECIFIED
:DEGREES
1741
root -0.908343 32.809268 -4.298409 40.243975 -0.036876 0.591346
Spine -46.196163 -1.173027 -4.998065
Head -1.765275 -16.820735 4.303649
LeftShoulder -13.001885 44.564980 8.838997
LeftArm 71.104295 33.952113 -52.396273
LeftForeArm 8.980765 0.000000 5.082408
LeftHand -18.832626 0.000000 -5.127675
LeftHandThumb1 -26.253704 0.000000 33.147579
RightShoulder -24.930741 -55.039797 -28.859572
RightArm -42.190918 88.715950 -95.542983
RightForeArm 29.201351 -0.000000 79.702173
RightHand 5.593665 -0.000000 17.355752
RightHandThumb1 -24.326973 -0.000000 -32.862282
LeftUpLeg -35.850845 6.458008 -1.634793
LeftLeg 0.301480 -0.000000 -0.000000
LeftFoot -1.921203 0.804626 -3.144128
LeftToeBase 1.979407 -0.000000 -0.000000
RightUpLeg -36.262077 -9.788614 5.552005
RightLeg -1.900101 -0.000000 0.000000
RightFoot -5.136395 -4.563598 18.656309
RightToeBase 16.197005 -0.000000 -0.000000
1742
root -0.912362 32.809028 -4.293727 40.260053 0.020696 0.589651
Spine -46.211553 -1.180862 -5.036524
Head -1.730479 -16.873659 4.319869
LeftShoulder -12.980047 44.580875 8.876470
LeftArm 71.069834 33.892019 -52.471343
LeftForeArm 9.033761 -0.000000 5.138004
LeftHand -18.840859 -0.000000 -4.994133
LeftHandThumb1 -26.253704 0.000000 33.147579
RightShoulder -24.967408 -55.146203 -28.760265
RightArm -54.745982 88.690861 -107.827321
RightForeArm 29.493914 -0.000000 79.855645
RightHand 5.826288 -0.000000 17.177039
RightHandThumb1 -24.326973 -0.000000 -32.862282
LeftUpLeg -35.863678 6.437237 -1.606001
LeftLeg 0.296493 -0.000000 -0.000000
LeftFoot -1.917900 0.785377 -3.146373
LeftToeBase 1.958696 -0.000000 -0.000000
RightUpLeg -36.266684 -9.806680 5.580652
RightLeg -1.894320 -0.000000 0.000000
RightFoot -5.159472 -4.575850 18.643157
RightToeBase 16.211521 -0.000000 -0.000000
1743
root -0.915773 32.809023 -4.288586 40.274779 0.076792 0.589013
Spine -46.226732 -1.193038 -5.065568
Head -1.682304 -16.890565 4.268239
LeftShoulder -12.970949 44.606814 8.891387
LeftArm 71.012830 33.823933 -52.570577
LeftForeArm 9.014072 -0.000000 5.227750
LeftHand -18.895474 -0.000000 -4.793781
LeftHandThumb1 -26.253704 0.000000 33.147579
RightShoulder -25.007262 -55.213074 -28.672751
RightArm -64.672454 88.639489 -117.500199
RightForeArm 29.818983 -0.000000 79.976956
RightHand 6.059227 -0.000000 16.666059
RightHandThumb1 -24.326973 -0.000000 -32.862282
LeftUpLeg -35.880360 6.429582 -1.589397
LeftLeg 0.301589 -0.000000 -0.000000
LeftFoot -1.915192 0.750977 -3.141414
LeftToeBase 1.991461 -0.000000 -0.000000
RightUpLeg -36.263137 -9.812554 5.596407
RightLeg -1.898622 -0.000000 0.000000
RightFoot -5.181993 -4.602100 18.684945
RightToeBase 16.206343 -0.000000 -0.000000
1744
root -0.920702 32.809000 -4.283426 40.289466 0.139550 0.587535
Spine -46.239092 -1.213559 -5.090663
Head -1.636771 -16.895986 4.216039
LeftShoulder -12.956147 44.621005 8.922858
LeftArm 70.935182 33.764306 -52.684696
LeftForeArm 9.016321 -0.000000 5.320952
LeftHand -18.908381 -0.000000 -4.696078
LeftHandThumb1 -26.253704 0.000000 33.147579
RightShoulder -25.055482 -55.243721 -28.579357
RightArm -73.113429 88.585871 -125.683487
RightForeArm 30.129694 -0.000000 80.090920
RightHand 6.422123 -0.000000 16.263419
RightHandThumb1 -24.326973 -0.000000 -32.862282
LeftUpLeg -35.890479 6.419104 -1.569122
LeftLeg 0.292367 -0.000000 -0.000000
LeftFoot -1.882155 0.746769 -3.070713
LeftToeBase 1.875527 -0.000000 -0.000000
RightUpLeg -36.261550 -9.809627 5.610825
RightLeg -1.889489 -0.000000 0.000000
RightFoot -5.210589 -4.653207 18.660606
RightToeBase 16.177085 -0.000000 -0.000000
1745
root -0.924254 32.809355 -4.277587 40.301355 0.199887 0.587651
Spine -46.253931 -1.234521 -5.105341
Head -1.575633 -16.920190 4.149564
LeftShoulder -12.942631 44.630227 8.933835
LeftArm 70.848702 33.700624 -52.808307
LeftForeArm 9.015504 -0.000000 5.404742
LeftHand -18.993238 0.000000 -4.651381
LeftHandThumb1 -26.253704 0.000000 33.147579
RightShoulder -25.097481 -55.301088 -28.484254
RightArm -81.916364 88.488720 -134.224253
RightForeArm 30.381066 0.000000 80.202963
RightHand 6.712819 -0.000000 15.833457
RightHandThumb1 -24.326973 -0.000000 -32.862282
LeftUpLeg -35.898265 6.408230 -1.552022
LeftLeg 0.285592 -0.000000 -0.000000
LeftFoot -1.892551 0.705930 -3.111584
LeftToeBase 1.982042 -0.000000 -0.000000
RightUpLeg -36.260447 -9.839892 5.644208
RightLeg -1.887059 -0.000000 0.000000
RightFoot -5.223393 -4.648415 18.673599
RightToeBase 16.177942 -0.000000 -0.000000
1746
root -0.927657 32.809471 -4.272864 40.328390 0.288958 0.592237
Spine -46.279483 -1.286708 -5.096172
Head -1.514644 -16.944613 4.079720
LeftShoulder -12.926542 44.612059 8.962271
LeftArm 70.742731 33.674096 -52.949199
LeftForeArm 9.019609 -0.000000 5.458984
LeftHand -19.013549 -0.000000 -4.596589
LeftHandThumb1 -26.253704 0.000000 33.147579
RightShoulder -25.141382 -55.385447 -28.379502
RightArm -91.730713 88.327313 -143.744969
RightForeArm 30.764628 -0.000000 80.333953
RightHand 6.987803 0.000000 15.467154
RightHandThumb1 -24.326973 -0.000000 -32.862282
LeftUpLeg -35.928060 6.366087 -1.515752
LeftLeg 0.288387 -0.000000 -0.000000
LeftFoot -1.893098 0.679451 -3.122657
LeftToeBase 1.974916 -0.000000 -0.000000
RightUpLeg -36.263181 -9.863527 5.675323
RightLeg -1.900978 -0.000000 0.000000
RightFoot -5.249299 -4.693701 18.699872
RightToeBase 16.161559 -0.000000 -0.000000
1747
root -0.928402 32.809128 -4.266242 40.345348 0.340717 0.594631
Spine -46.304570 -1.303693 -5.108169
Head -1.419445 -16.956851 3.989314
LeftShoulder -12.916826 44.621696 8.975321
LeftArm 70.710226 33.647251 -53.022056
LeftForeArm 8.987879 0.000000 5.470140
LeftHand -19.003075 -0.000000 -4.564785
LeftHandThumb1 -26.253704 0.000000 33.147579
RightShoulder -25.119812 -55.407201 -28.362808
RightArm -99.037270 88.207110 -150.723142
RightForeArm 31.083538 -0.000000 80.455348
RightHand 7.392547 -0.000000 15.008254
RightHandThumb1 -24.326973 -0.000000 -32.862282
LeftUpLeg -35.937861 6.376349 -1.532702
LeftLeg 0.267891 -0.000000 -0.000000
LeftFoot -1.859929 0.687751 -3.077983
LeftToeBase 1.902450 -0.000000 -0.000000
RightUpLeg -36.247469 -9.900515 5.710510
RightLeg -1.943597 -0.000000 0.000000
RightFoot -5.240108 -4.717983 18.656310
RightToeBase 16.160566 -0.000000 -0.000000
1748
root -0.930722 32.808668 -4.259726 40.363597 0.392612 0.591264
Spine -46.330866 -1.323236 -5.116637
Head -1.319544 -16.952424 3.924031
LeftShoulder -12.894104 44.611667 9.007217
LeftArm 70.682768 33.651506 -53.071262
LeftForeArm 8.946083 -0.000000 5.473182
LeftHand -19.000037 -0.000000 -4.570172
LeftHandThumb1 -26.253704 0.000000 33.147579
RightShoulder -25.047234 -55.425425 -28.386411
RightArm -105.702036 88.041948 -157.010879
RightForeArm 31.513059 0.000000 80.587655
RightHand 7.745305 -0.000000 14.662719
RightHandThumb1 -24.326973 -0.000000 -32.862282
LeftUpLeg -35.943749 6.373392 -1.518758
LeftLeg 0.251750 -0.000000 -0.000000
LeftFoot -1.862505 0.650924 -3.090201
LeftToeBase 1.915384 -0.000000 -0.000000
RightUpLeg -36.244103 -9.900051 5.725872
RightLeg -1.947151 -0.000000 0.000000
RightFoot -5.268732 -4.760791 18.654531
RightToeBase 16.172469 -0.000000 -0.000000
1749
root -0.932634 32.808189 -4.254651 40.410621 0.436466 0.586652
Spine -46.391071 -1.361492 -5.106718
Head -1.197674 -16.954086 3.867147
LeftShoulder -12.892432 44.602541 9.031406
LeftArm 70.628115 33.655540 -53.176852
LeftForeArm 8.955587 -0.000000 5.457464
LeftHand -18.989680 -0.000000 -4.560296
LeftHandThumb1 -26.253704 0.000000 33.147579
RightShoulder -24.873042 -55.404025 -28.520740
RightArm -112.117406 87.884812 -162.992848
RightForeArm 31.992780 0.000000 80.684380
RightHand 8.126064 -0.000000 14.498838
RightHandThumb1 -24.326973 -0.000000 -32.862282
LeftUpLeg -35.979390 6.369609 -1.508326
LeftLeg 0.234207 -0.000000 -0.000000
LeftFoot -1.860467 0.624904 -3.087421
LeftToeBase 1.917830 -0.000000 -0.000000
RightUpLeg -36.278729 -9.901665 5.747931
RightLeg -1.941921 -0.000000 0.000000
RightFoot -5.301323 -4.783047 18.672530
RightToeBase 16.206166 -0.000000 -0.000000
1750
root -0.933800 32.807586 -4.248472 40.429801 0.473048 0.585610
Spine -46.406755 -1.367941 -5.118673
Head -1.149694 -17.010664 3.781201
LeftShoulder -12.881173 44.584971 9.035752
LeftArm 70.620812 33.663272 -53.210139
LeftForeArm 8.956880 -0.000000 5.422293
LeftHand -18.987377 -0.000000 -4.578701
LeftHandThumb1 -26.253704 0.000000 33.147579
RightShoulder -24.757738 -55.308958 -28.648828
RightArm -118.579006 87.756823 -169.001733
RightForeArm 32.592209 -0.000000 80.779641
RightHand 8.418696 -0.000000 14.421224
RightHandThumb1 -24.326973 -0.000000 -32.862282
LeftUpLeg -35.986943 6.385381 -1.514930
LeftLeg 0.218885 -0.000000 -0.000000
LeftFoot -1.871731 0.556680 -3.134885
LeftToeBase 1.984591 -0.000000 -0.000000
RightUpLeg -36.277622 -9.888383 5.746620
RightLeg -1.945439 -0.000000 0.000000
RightFoot -5.318125 -4.817027 18.666725
RightToeBase 16.150724 -0.000000 -0.000000
